<svg xmlns="http://www.w3.org/2000/svg" width="430" height="430" fill="none" viewBox="0 0 430 430"><path fill="url(#lTCsJHP15ra)" fill-rule="evenodd" d="M215 300c46.944 0 85-38.056 85-85s-38.056-85-85-85-85 38.056-85 85 38.056 85 85 85m0-30c30.376 0 55-24.624 55-55s-24.624-55-55-55-55 24.624-55 55 24.624 55 55 55" clip-rule="evenodd"/><path fill="url(#bgvMciOtMWb)" d="M305 140c8.284 0 15-6.716 15-15s-6.716-15-15-15-15 6.716-15 15 6.716 15 15 15"/><path fill="url(#n5TWRhaVYDc)" fill-rule="evenodd" d="M115 55c-33.137 0-60 26.863-60 60v200c0 33.137 26.863 60 60 60h200c33.137 0 60-26.863 60-60V115c0-33.137-26.863-60-60-60zm200 30H115c-16.568 0-30 13.432-30 30v200c0 16.569 13.432 30 30 30h200c16.569 0 30-13.431 30-30V115c0-16.568-13.431-30-30-30" clip-rule="evenodd"/><path stroke="#121331" stroke-width="10.5" d="M215 300c46.944 0 85-38.056 85-85s-38.056-85-85-85-85 38.056-85 85 38.056 85 85 85Zm0-30c30.376 0 55-24.624 55-55s-24.624-55-55-55-55 24.624-55 55 24.624 55 55 55Z" clip-rule="evenodd"/><path stroke="#121331" stroke-width="10.5" d="M305 140c8.284 0 15-6.716 15-15s-6.716-15-15-15-15 6.716-15 15 6.716 15 15 15Z"/><path stroke="#121331" stroke-width="10.5" d="M115 55c-33.137 0-60 26.863-60 60v200c0 33.137 26.863 60 60 60h200c33.137 0 60-26.863 60-60V115c0-33.137-26.863-60-60-60zm200 30H115c-16.568 0-30 13.432-30 30v200c0 16.569 13.432 30 30 30h200c16.569 0 30-13.431 30-30V115c0-16.568-13.431-30-30-30Z" clip-rule="evenodd"/><defs><linearGradient id="lTCsJHP15ra" x1="67.9611" x2="342.107" y1="55" y2="365.487" gradientUnits="userSpaceOnUse"><stop stop-color="#4bb3fd"/><stop offset=".3125" stop-color="#f28ba8"/><stop offset=".7552" stop-color="#FBB35E"/><stop offset="1" stop-color="#ffc738"/></linearGradient><linearGradient id="bgvMciOtMWb" x1="67.9611" x2="342.107" y1="55" y2="365.487" gradientUnits="userSpaceOnUse"><stop stop-color="#4bb3fd"/><stop offset=".3125" stop-color="#f28ba8"/><stop offset=".7552" stop-color="#FBB35E"/><stop offset="1" stop-color="#ffc738"/></linearGradient><linearGradient id="n5TWRhaVYDc" x1="67.9611" x2="342.107" y1="55" y2="365.487" gradientUnits="userSpaceOnUse"><stop stop-color="#4bb3fd"/><stop offset=".3125" stop-color="#f28ba8"/><stop offset=".7552" stop-color="#FBB35E"/><stop offset="1" stop-color="#ffc738"/></linearGradient></defs></svg>