<svg xmlns="http://www.w3.org/2000/svg" width="430" height="430" fill="none" viewBox="0 0 430 430"><circle cx="215" cy="215" r="167.5" fill="#4bb3fd"/><path fill="#4bb3fd" d="M298.007 360.519c-15.208 4.542-31.323 6.981-48.007 6.981-92.508 0-167.5-74.992-167.5-167.5 0-62.305 34.018-116.664 84.493-145.519C97.881 75.121 47.5 139.177 47.5 215c0 92.508 74.992 167.5 167.5 167.5 30.203 0 58.538-7.993 83.007-21.981" opacity=".5" style="mix-blend-mode:multiply"/><mask id="XZvvRoxnpKa" width="336" height="336" x="47" y="47" maskUnits="userSpaceOnUse" style="mask-type:alpha"><circle cx="215" cy="215" r="167.5" fill="#fff"/></mask><g fill="#ebe6ef" mask="url(#XZvvRoxnpKa)"><path d="M280 110v55h-35c-8.284 0-15 6.716-15 15v40h55l-15 55h-40v115h-55V275h-40v-55h40v-45c0-35.899 29.101-65 65-65z"/><path d="M205 390V275h-30v115zm-40-115v-55h-30v55zm10-55h30v-45c0-35.899 29.101-65 65-65h-30c-35.899 0-65 29.101-65 65z" opacity=".5" style="mix-blend-mode:multiply"/><path d="M230 381.838v-15.52a166.4 166.4 0 0 1-55-16.506v27.882a168 168 0 0 0 40 4.806c5.055 0 10.059-.224 15-.662" opacity=".5" style="mix-blend-mode:multiply"/></g><mask id="esO0RQf5TEb" width="336" height="336" x="47" y="47" maskUnits="userSpaceOnUse" style="mask-type:alpha"><circle cx="215" cy="215" r="167.5" fill="#fff"/></mask><g mask="url(#esO0RQf5TEb)"><path stroke="#121331" stroke-linejoin="round" stroke-width="10.5" d="M280 110v55h-35c-8.284 0-15 6.716-15 15v40h55l-15 55h-40v115h-55V275h-40v-55h40v-45c0-35.899 29.101-65 65-65z"/></g><circle cx="215" cy="215" r="167.5" stroke="#121331" stroke-width="10.5"/></svg>